<?xml version="1.0" encoding="UTF-8" standalone="yes"?><svg xmlns="http://www.w3.org/2000/svg" xmlns:xlink="http://www.w3.org/1999/xlink" height="1083px" style="width:991px;height:1083px;" version="1.1" viewBox="0 0 991 1083" width="991px"><defs><filter height="300%" id="f1" width="300%" x="-1" y="-1"><feGaussianBlur result="blurOut" stdDeviation="2.0"/><feColorMatrix in="blurOut" result="blurOut2" type="matrix" values="0 0 0 0 0 0 0 0 0 0 0 0 0 0 0 0 0 0 .4 0"/><feOffset dx="4.0" dy="4.0" in="blurOut2" result="blurOut3"/><feBlend in="SourceGraphic" in2="blurOut3" mode="normal"/></filter></defs><g><polygon fill="#FFFFFF" filter="url(#f1)" points="30,32,210,32,217,54.2969,481,54.2969,481,262,30,262,30,32" style="stroke: #000000; stroke-width: 2.0;"/><line style="stroke: #000000; stroke-width: 2.0;" x1="30" x2="217" y1="54.2969" y2="54.2969"/><text fill="#000000" font-family="sans-serif" font-size="14" font-weight="bold" lengthAdjust="spacingAndGlyphs" textLength="174" x="33" y="47.9951">se.hig.oodp.lab.model</text><polygon fill="#FFFFFF" filter="url(#f1)" points="30,302,262,302,269,324.2969,984,324.2969,984,1076,30,1076,30,302" style="stroke: #000000; stroke-width: 2.0;"/><line style="stroke: #000000; stroke-width: 2.0;" x1="30" x2="269" y1="324.2969" y2="324.2969"/><text fill="#000000" font-family="sans-serif" font-size="14" font-weight="bold" lengthAdjust="spacingAndGlyphs" textLength="226" x="33" y="317.9951">se.hig.oodp.lab.model.figure</text><rect fill="#FFFFFF" filter="url(#f1)" height="163.2422" style="stroke: #383838; stroke-width: 1.5;" width="384" x="73" y="75"/><ellipse cx="232.25" cy="91" fill="#C2C2C2" rx="11" ry="11" style="stroke: #383838; stroke-width: 1.0;"/><path d="M235.2188,96.6406 Q234.6406,96.9375 234,97.0859 Q233.3594,97.2344 232.6563,97.2344 Q230.1563,97.2344 228.8359,95.5859 Q227.5156,93.9375 227.5156,90.8125 Q227.5156,87.6875 228.8359,86.0313 Q230.1563,84.375 232.6563,84.375 Q233.3594,84.375 234.0078,84.5313 Q234.6563,84.6875 235.2188,84.9844 L235.2188,87.7031 Q234.5938,87.125 234,86.8516 Q233.4063,86.5781 232.7813,86.5781 Q231.4375,86.5781 230.75,87.6484 Q230.0625,88.7188 230.0625,90.8125 Q230.0625,92.9063 230.75,93.9766 Q231.4375,95.0469 232.7813,95.0469 Q233.4063,95.0469 234,94.7734 Q234.5938,94.5 235.2188,93.9219 L235.2188,96.6406 Z "/><text fill="#000000" font-family="sans-serif" font-size="12" lengthAdjust="spacingAndGlyphs" textLength="57" x="252.75" y="95.1543">Vertex2D</text><line style="stroke: #383838; stroke-width: 1.5;" x1="74" x2="456" y1="107" y2="107"/><rect fill="none" height="6" style="stroke: #595959; stroke-width: 1.0;" width="6" x="81" y="115.9023"/><text fill="#000000" font-family="sans-serif" font-size="11" lengthAdjust="spacingAndGlyphs" textLength="52" x="93" y="121.2104">x: double</text><rect fill="none" height="6" style="stroke: #595959; stroke-width: 1.0;" width="6" x="81" y="128.707"/><text fill="#000000" font-family="sans-serif" font-size="11" lengthAdjust="spacingAndGlyphs" textLength="52" x="93" y="134.0151">y: double</text><line style="stroke: #383838; stroke-width: 1.5;" x1="74" x2="456" y1="140.6094" y2="140.6094"/><ellipse cx="84" cy="152.5117" fill="#A6A6A6" rx="3" ry="3" style="stroke: #545454; stroke-width: 1.0;"/><text fill="#000000" font-family="sans-serif" font-size="11" lengthAdjust="spacingAndGlyphs" textLength="163" x="93" y="154.8198">Vertex2D(x:double, y:double)</text><ellipse cx="84" cy="165.3164" fill="#A6A6A6" rx="3" ry="3" style="stroke: #545454; stroke-width: 1.0;"/><text fill="#000000" font-family="sans-serif" font-size="11" lengthAdjust="spacingAndGlyphs" textLength="79" x="93" y="167.6245">getX(): double</text><ellipse cx="84" cy="178.1211" fill="#A6A6A6" rx="3" ry="3" style="stroke: #545454; stroke-width: 1.0;"/><text fill="#000000" font-family="sans-serif" font-size="11" lengthAdjust="spacingAndGlyphs" textLength="79" x="93" y="180.4292">getY(): double</text><ellipse cx="84" cy="190.9258" fill="#A6A6A6" rx="3" ry="3" style="stroke: #545454; stroke-width: 1.0;"/><text fill="#000000" font-family="sans-serif" font-size="11" lengthAdjust="spacingAndGlyphs" textLength="230" x="93" y="193.2339">moveBy(dx:double, dy:double): Vertex2D</text><ellipse cx="84" cy="203.7305" fill="#A6A6A6" rx="3" ry="3" style="stroke: #545454; stroke-width: 1.0;"/><text fill="#000000" font-family="sans-serif" font-size="11" lengthAdjust="spacingAndGlyphs" textLength="253" x="93" y="206.0386">rotate(ref:Vertex2D, angle:double): Vertex2D</text><ellipse cx="84" cy="216.5352" fill="#A6A6A6" rx="3" ry="3" style="stroke: #545454; stroke-width: 1.0;"/><text fill="#000000" font-family="sans-serif" font-size="11" lengthAdjust="spacingAndGlyphs" textLength="358" x="93" y="218.8433">scale(ref:Vertex2D, x_factor:double, y_factor:double): Vertex2D</text><ellipse cx="84" cy="229.3398" fill="#A6A6A6" rx="3" ry="3" style="stroke: #545454; stroke-width: 1.0;"/><text fill="#000000" font-family="sans-serif" font-size="11" lengthAdjust="spacingAndGlyphs" textLength="95" x="93" y="231.6479">toString(): String</text><rect fill="#FFFFFF" filter="url(#f1)" height="112.0234" style="stroke: #383838; stroke-width: 1.5;" width="197" x="85.5" y="390"/><ellipse cx="163.75" cy="406" fill="#C2C2C2" rx="11" ry="11" style="stroke: #383838; stroke-width: 1.0;"/><path d="M166.7188,411.6406 Q166.1406,411.9375 165.5,412.0859 Q164.8594,412.2344 164.1563,412.2344 Q161.6563,412.2344 160.3359,410.5859 Q159.0156,408.9375 159.0156,405.8125 Q159.0156,402.6875 160.3359,401.0313 Q161.6563,399.375 164.1563,399.375 Q164.8594,399.375 165.5078,399.5313 Q166.1563,399.6875 166.7188,399.9844 L166.7188,402.7031 Q166.0938,402.125 165.5,401.8516 Q164.9063,401.5781 164.2813,401.5781 Q162.9375,401.5781 162.25,402.6484 Q161.5625,403.7188 161.5625,405.8125 Q161.5625,407.9063 162.25,408.9766 Q162.9375,410.0469 164.2813,410.0469 Q164.9063,410.0469 165.5,409.7734 Q166.0938,409.5 166.7188,408.9219 L166.7188,411.6406 Z "/><text fill="#000000" font-family="sans-serif" font-size="12" lengthAdjust="spacingAndGlyphs" textLength="32" x="184.25" y="410.1543">Point</text><line style="stroke: #383838; stroke-width: 1.5;" x1="86.5" x2="281.5" y1="422" y2="422"/><rect fill="none" height="6" style="stroke: #595959; stroke-width: 1.0;" width="6" x="93.5" y="430.9023"/><text fill="#000000" font-family="sans-serif" font-size="11" lengthAdjust="spacingAndGlyphs" textLength="95" x="105.5" y="436.2104">center: Vertex2D</text><line style="stroke: #383838; stroke-width: 1.5;" x1="86.5" x2="281.5" y1="442.8047" y2="442.8047"/><ellipse cx="96.5" cy="454.707" fill="#A6A6A6" rx="3" ry="3" style="stroke: #545454; stroke-width: 1.0;"/><text fill="#000000" font-family="sans-serif" font-size="11" lengthAdjust="spacingAndGlyphs" textLength="127" x="105.5" y="457.0151">Point(center:Vertex2D)</text><ellipse cx="96.5" cy="467.5117" fill="#A6A6A6" rx="3" ry="3" style="stroke: #545454; stroke-width: 1.0;"/><text fill="#000000" font-family="sans-serif" font-size="11" lengthAdjust="spacingAndGlyphs" textLength="171" x="105.5" y="469.8198">moveBy(dx:double, dy:double)</text><ellipse cx="96.5" cy="480.3164" fill="#A6A6A6" rx="3" ry="3" style="stroke: #545454; stroke-width: 1.0;"/><text fill="#000000" font-family="sans-serif" font-size="11" lengthAdjust="spacingAndGlyphs" textLength="123" x="105.5" y="482.6245">getCenter(): Vertex2D</text><ellipse cx="96.5" cy="493.1211" fill="#A6A6A6" rx="3" ry="3" style="stroke: #545454; stroke-width: 1.0;"/><text fill="#000000" font-family="sans-serif" font-size="11" lengthAdjust="spacingAndGlyphs" textLength="95" x="105.5" y="495.4292">toString(): String</text><rect fill="#FFFFFF" filter="url(#f1)" height="176.0469" style="stroke: #383838; stroke-width: 1.5;" width="238" x="318" y="358"/><ellipse cx="420.25" cy="374" fill="#C2C2C2" rx="11" ry="11" style="stroke: #383838; stroke-width: 1.0;"/><path d="M423.2188,379.6406 Q422.6406,379.9375 422,380.0859 Q421.3594,380.2344 420.6563,380.2344 Q418.1563,380.2344 416.8359,378.5859 Q415.5156,376.9375 415.5156,373.8125 Q415.5156,370.6875 416.8359,369.0313 Q418.1563,367.375 420.6563,367.375 Q421.3594,367.375 422.0078,367.5313 Q422.6563,367.6875 423.2188,367.9844 L423.2188,370.7031 Q422.5938,370.125 422,369.8516 Q421.4063,369.5781 420.7813,369.5781 Q419.4375,369.5781 418.75,370.6484 Q418.0625,371.7188 418.0625,373.8125 Q418.0625,375.9063 418.75,376.9766 Q419.4375,378.0469 420.7813,378.0469 Q421.4063,378.0469 422,377.7734 Q422.5938,377.5 423.2188,376.9219 L423.2188,379.6406 Z "/><text fill="#000000" font-family="sans-serif" font-size="12" lengthAdjust="spacingAndGlyphs" textLength="25" x="440.75" y="378.1543">Line</text><line style="stroke: #383838; stroke-width: 1.5;" x1="319" x2="555" y1="390" y2="390"/><rect fill="none" height="6" style="stroke: #595959; stroke-width: 1.0;" width="6" x="326" y="398.9023"/><text fill="#000000" font-family="sans-serif" font-size="11" lengthAdjust="spacingAndGlyphs" textLength="95" x="338" y="404.2104">center: Vertex2D</text><rect fill="none" height="6" style="stroke: #595959; stroke-width: 1.0;" width="6" x="326" y="411.707"/><text fill="#000000" font-family="sans-serif" font-size="11" lengthAdjust="spacingAndGlyphs" textLength="72" x="338" y="417.0151">v0: Vertex2D</text><rect fill="none" height="6" style="stroke: #595959; stroke-width: 1.0;" width="6" x="326" y="424.5117"/><text fill="#000000" font-family="sans-serif" font-size="11" lengthAdjust="spacingAndGlyphs" textLength="72" x="338" y="429.8198">v1: Vertex2D</text><rect fill="none" height="6" style="stroke: #595959; stroke-width: 1.0;" width="6" x="326" y="437.3164"/><text fill="#000000" font-family="sans-serif" font-size="11" lengthAdjust="spacingAndGlyphs" textLength="172" x="338" y="442.6245">vertices: ArrayList&lt;Vertex2D&gt;</text><line style="stroke: #383838; stroke-width: 1.5;" x1="319" x2="555" y1="449.2188" y2="449.2188"/><ellipse cx="329" cy="461.1211" fill="#A6A6A6" rx="3" ry="3" style="stroke: #545454; stroke-width: 1.0;"/><text fill="#000000" font-family="sans-serif" font-size="11" lengthAdjust="spacingAndGlyphs" textLength="175" x="338" y="463.4292">Line(v0:Vertex2D, v1:Vertex2D)</text><ellipse cx="329" cy="473.9258" fill="#A6A6A6" rx="3" ry="3" style="stroke: #545454; stroke-width: 1.0;"/><text fill="#000000" font-family="sans-serif" font-size="11" lengthAdjust="spacingAndGlyphs" textLength="171" x="338" y="476.2339">moveBy(dx:double, dy:double)</text><ellipse cx="329" cy="486.7305" fill="#A6A6A6" rx="3" ry="3" style="stroke: #545454; stroke-width: 1.0;"/><text fill="#000000" font-family="sans-serif" font-size="11" lengthAdjust="spacingAndGlyphs" textLength="115" x="338" y="489.0386">rotate(angle:double)</text><ellipse cx="329" cy="499.5352" fill="#A6A6A6" rx="3" ry="3" style="stroke: #545454; stroke-width: 1.0;"/><text fill="#000000" font-family="sans-serif" font-size="11" lengthAdjust="spacingAndGlyphs" textLength="212" x="338" y="501.8433">scale(xFactor:double, yFactor:double)</text><ellipse cx="329" cy="512.3398" fill="#A6A6A6" rx="3" ry="3" style="stroke: #545454; stroke-width: 1.0;"/><text fill="#000000" font-family="sans-serif" font-size="11" lengthAdjust="spacingAndGlyphs" textLength="123" x="338" y="514.6479">getCenter(): Vertex2D</text><ellipse cx="329" cy="525.1445" fill="#A6A6A6" rx="3" ry="3" style="stroke: #545454; stroke-width: 1.0;"/><text fill="#000000" font-family="sans-serif" font-size="11" lengthAdjust="spacingAndGlyphs" textLength="95" x="338" y="527.4526">toString(): String</text><rect fill="#FFFFFF" filter="url(#f1)" height="201.6563" style="stroke: #383838; stroke-width: 1.5;" width="300" x="591" y="345"/><ellipse cx="711.75" cy="361" fill="#C2C2C2" rx="11" ry="11" style="stroke: #383838; stroke-width: 1.0;"/><path d="M714.7188,366.6406 Q714.1406,366.9375 713.5,367.0859 Q712.8594,367.2344 712.1563,367.2344 Q709.6563,367.2344 708.3359,365.5859 Q707.0156,363.9375 707.0156,360.8125 Q707.0156,357.6875 708.3359,356.0313 Q709.6563,354.375 712.1563,354.375 Q712.8594,354.375 713.5078,354.5313 Q714.1563,354.6875 714.7188,354.9844 L714.7188,357.7031 Q714.0938,357.125 713.5,356.8516 Q712.9063,356.5781 712.2813,356.5781 Q710.9375,356.5781 710.25,357.6484 Q709.5625,358.7188 709.5625,360.8125 Q709.5625,362.9063 710.25,363.9766 Q710.9375,365.0469 712.2813,365.0469 Q712.9063,365.0469 713.5,364.7734 Q714.0938,364.5 714.7188,363.9219 L714.7188,366.6406 Z "/><text fill="#000000" font-family="sans-serif" font-size="12" lengthAdjust="spacingAndGlyphs" textLength="50" x="732.25" y="365.1543">Triangle</text><line style="stroke: #383838; stroke-width: 1.5;" x1="592" x2="890" y1="377" y2="377"/><rect fill="none" height="6" style="stroke: #595959; stroke-width: 1.0;" width="6" x="599" y="385.9023"/><text fill="#000000" font-family="sans-serif" font-size="11" lengthAdjust="spacingAndGlyphs" textLength="95" x="611" y="391.2104">center: Vertex2D</text><rect fill="none" height="6" style="stroke: #595959; stroke-width: 1.0;" width="6" x="599" y="398.707"/><text fill="#000000" font-family="sans-serif" font-size="11" lengthAdjust="spacingAndGlyphs" textLength="72" x="611" y="404.0151">v0: Vertex2D</text><rect fill="none" height="6" style="stroke: #595959; stroke-width: 1.0;" width="6" x="599" y="411.5117"/><text fill="#000000" font-family="sans-serif" font-size="11" lengthAdjust="spacingAndGlyphs" textLength="72" x="611" y="416.8198">v1: Vertex2D</text><rect fill="none" height="6" style="stroke: #595959; stroke-width: 1.0;" width="6" x="599" y="424.3164"/><text fill="#000000" font-family="sans-serif" font-size="11" lengthAdjust="spacingAndGlyphs" textLength="72" x="611" y="429.6245">v2: Vertex2D</text><rect fill="none" height="6" style="stroke: #595959; stroke-width: 1.0;" width="6" x="599" y="437.1211"/><text fill="#000000" font-family="sans-serif" font-size="11" lengthAdjust="spacingAndGlyphs" textLength="172" x="611" y="442.4292">vertices: ArrayList&lt;Vertex2D&gt;</text><line style="stroke: #383838; stroke-width: 1.5;" x1="592" x2="890" y1="449.0234" y2="449.0234"/><ellipse cx="602" cy="460.9258" fill="#A6A6A6" rx="3" ry="3" style="stroke: #545454; stroke-width: 1.0;"/><text fill="#000000" font-family="sans-serif" font-size="11" lengthAdjust="spacingAndGlyphs" textLength="274" x="611" y="463.2339">Triangle(v0:Vertex2D, v1:Vertex2D, v2:Vertex2D)</text><ellipse cx="602" cy="473.7305" fill="#A6A6A6" rx="3" ry="3" style="stroke: #545454; stroke-width: 1.0;"/><text fill="#000000" font-family="sans-serif" font-size="11" lengthAdjust="spacingAndGlyphs" textLength="171" x="611" y="476.0386">moveBy(dx:double, dy:double)</text><ellipse cx="602" cy="486.5352" fill="#A6A6A6" rx="3" ry="3" style="stroke: #545454; stroke-width: 1.0;"/><text fill="#000000" font-family="sans-serif" font-size="11" lengthAdjust="spacingAndGlyphs" textLength="115" x="611" y="488.8433">rotate(angle:double)</text><ellipse cx="602" cy="499.3398" fill="#A6A6A6" rx="3" ry="3" style="stroke: #545454; stroke-width: 1.0;"/><text fill="#000000" font-family="sans-serif" font-size="11" lengthAdjust="spacingAndGlyphs" textLength="212" x="611" y="501.6479">scale(xFactor:double, yFactor:double)</text><ellipse cx="602" cy="512.1445" fill="#A6A6A6" rx="3" ry="3" style="stroke: #545454; stroke-width: 1.0;"/><text fill="#000000" font-family="sans-serif" font-size="11" lengthAdjust="spacingAndGlyphs" textLength="123" x="611" y="514.4526">getCenter(): Vertex2D</text><ellipse cx="602" cy="524.9492" fill="#A6A6A6" rx="3" ry="3" style="stroke: #545454; stroke-width: 1.0;"/><text fill="#000000" font-family="sans-serif" font-size="11" lengthAdjust="spacingAndGlyphs" textLength="146" x="611" y="527.2573">getVertex(n:int): Vertex2D</text><ellipse cx="602" cy="537.7539" fill="#A6A6A6" rx="3" ry="3" style="stroke: #545454; stroke-width: 1.0;"/><text fill="#000000" font-family="sans-serif" font-size="11" lengthAdjust="spacingAndGlyphs" textLength="95" x="611" y="540.062">toString(): String</text><rect fill="#FFFFFF" filter="url(#f1)" height="150.4375" style="stroke: #383838; stroke-width: 1.5;" width="243" x="62.5" y="754.5"/><ellipse cx="162.75" cy="770.5" fill="#C2C2C2" rx="11" ry="11" style="stroke: #383838; stroke-width: 1.0;"/><path d="M165.7188,776.1406 Q165.1406,776.4375 164.5,776.5859 Q163.8594,776.7344 163.1563,776.7344 Q160.6563,776.7344 159.3359,775.0859 Q158.0156,773.4375 158.0156,770.3125 Q158.0156,767.1875 159.3359,765.5313 Q160.6563,763.875 163.1563,763.875 Q163.8594,763.875 164.5078,764.0313 Q165.1563,764.1875 165.7188,764.4844 L165.7188,767.2031 Q165.0938,766.625 164.5,766.3516 Q163.9063,766.0781 163.2813,766.0781 Q161.9375,766.0781 161.25,767.1484 Q160.5625,768.2188 160.5625,770.3125 Q160.5625,772.4063 161.25,773.4766 Q161.9375,774.5469 163.2813,774.5469 Q163.9063,774.5469 164.5,774.2734 Q165.0938,774 165.7188,773.4219 L165.7188,776.1406 Z "/><text fill="#000000" font-family="sans-serif" font-size="12" lengthAdjust="spacingAndGlyphs" textLength="34" x="183.25" y="774.6543">Circle</text><line style="stroke: #383838; stroke-width: 1.5;" x1="63.5" x2="304.5" y1="786.5" y2="786.5"/><rect fill="none" height="6" style="stroke: #595959; stroke-width: 1.0;" width="6" x="70.5" y="795.4023"/><text fill="#000000" font-family="sans-serif" font-size="11" lengthAdjust="spacingAndGlyphs" textLength="95" x="82.5" y="800.7104">center: Vertex2D</text><rect fill="none" height="6" style="stroke: #595959; stroke-width: 1.0;" width="6" x="70.5" y="808.207"/><text fill="#000000" font-family="sans-serif" font-size="11" lengthAdjust="spacingAndGlyphs" textLength="82" x="82.5" y="813.5151">radius: double</text><line style="stroke: #383838; stroke-width: 1.5;" x1="63.5" x2="304.5" y1="820.1094" y2="820.1094"/><ellipse cx="73.5" cy="832.0117" fill="#A6A6A6" rx="3" ry="3" style="stroke: #545454; stroke-width: 1.0;"/><text fill="#000000" font-family="sans-serif" font-size="11" lengthAdjust="spacingAndGlyphs" textLength="217" x="82.5" y="834.3198">Circle(center:Vertex2D, radius:double)</text><ellipse cx="73.5" cy="844.8164" fill="#A6A6A6" rx="3" ry="3" style="stroke: #545454; stroke-width: 1.0;"/><text fill="#000000" font-family="sans-serif" font-size="11" lengthAdjust="spacingAndGlyphs" textLength="171" x="82.5" y="847.1245">moveBy(dx:double, dy:double)</text><ellipse cx="73.5" cy="857.6211" fill="#A6A6A6" rx="3" ry="3" style="stroke: #545454; stroke-width: 1.0;"/><text fill="#000000" font-family="sans-serif" font-size="11" lengthAdjust="spacingAndGlyphs" textLength="113" x="82.5" y="859.9292">scale(factor:double)</text><ellipse cx="73.5" cy="870.4258" fill="#A6A6A6" rx="3" ry="3" style="stroke: #545454; stroke-width: 1.0;"/><text fill="#000000" font-family="sans-serif" font-size="11" lengthAdjust="spacingAndGlyphs" textLength="123" x="82.5" y="872.7339">getCenter(): Vertex2D</text><ellipse cx="73.5" cy="883.2305" fill="#A6A6A6" rx="3" ry="3" style="stroke: #545454; stroke-width: 1.0;"/><text fill="#000000" font-family="sans-serif" font-size="11" lengthAdjust="spacingAndGlyphs" textLength="110" x="82.5" y="885.5386">getRadius(): double</text><ellipse cx="73.5" cy="896.0352" fill="#A6A6A6" rx="3" ry="3" style="stroke: #545454; stroke-width: 1.0;"/><text fill="#000000" font-family="sans-serif" font-size="11" lengthAdjust="spacingAndGlyphs" textLength="95" x="82.5" y="898.3433">toString(): String</text><rect fill="#FFFFFF" filter="url(#f1)" height="444.9453" style="stroke: #383838; stroke-width: 1.5;" width="345" x="340.5" y="607"/><ellipse cx="477.25" cy="623" fill="#C2C2C2" rx="11" ry="11" style="stroke: #383838; stroke-width: 1.0;"/><path d="M480.2188,628.6406 Q479.6406,628.9375 479,629.0859 Q478.3594,629.2344 477.6563,629.2344 Q475.1563,629.2344 473.8359,627.5859 Q472.5156,625.9375 472.5156,622.8125 Q472.5156,619.6875 473.8359,618.0313 Q475.1563,616.375 477.6563,616.375 Q478.3594,616.375 479.0078,616.5313 Q479.6563,616.6875 480.2188,616.9844 L480.2188,619.7031 Q479.5938,619.125 479,618.8516 Q478.4063,618.5781 477.7813,618.5781 Q476.4375,618.5781 475.75,619.6484 Q475.0625,620.7188 475.0625,622.8125 Q475.0625,624.9063 475.75,625.9766 Q476.4375,627.0469 477.7813,627.0469 Q478.4063,627.0469 479,626.7734 Q479.5938,626.5 480.2188,625.9219 L480.2188,628.6406 Z "/><text fill="#000000" font-family="sans-serif" font-size="12" lengthAdjust="spacingAndGlyphs" textLength="63" x="497.75" y="627.1543">Rectangle</text><line style="stroke: #383838; stroke-width: 1.5;" x1="341.5" x2="684.5" y1="639" y2="639"/><rect fill="none" height="6" style="stroke: #595959; stroke-width: 1.0;" width="6" x="348.5" y="647.9023"/><text fill="#000000" font-family="sans-serif" font-size="11" lengthAdjust="spacingAndGlyphs" textLength="95" x="360.5" y="653.2104">center: Vertex2D</text><rect fill="none" height="6" style="stroke: #595959; stroke-width: 1.0;" width="6" x="348.5" y="660.707"/><text fill="#000000" font-family="sans-serif" font-size="11" lengthAdjust="spacingAndGlyphs" textLength="72" x="360.5" y="666.0151">v0: Vertex2D</text><rect fill="none" height="6" style="stroke: #595959; stroke-width: 1.0;" width="6" x="348.5" y="673.5117"/><text fill="#000000" font-family="sans-serif" font-size="11" lengthAdjust="spacingAndGlyphs" textLength="72" x="360.5" y="678.8198">v1: Vertex2D</text><rect fill="none" height="6" style="stroke: #595959; stroke-width: 1.0;" width="6" x="348.5" y="686.3164"/><text fill="#000000" font-family="sans-serif" font-size="11" lengthAdjust="spacingAndGlyphs" textLength="72" x="360.5" y="691.6245">v3: Vertex2D</text><rect fill="none" height="6" style="stroke: #595959; stroke-width: 1.0;" width="6" x="348.5" y="699.1211"/><text fill="#000000" font-family="sans-serif" font-size="11" lengthAdjust="spacingAndGlyphs" textLength="72" x="360.5" y="704.4292">v3: Vertex2D</text><rect fill="none" height="6" style="stroke: #595959; stroke-width: 1.0;" width="6" x="348.5" y="711.9258"/><text fill="#000000" font-family="sans-serif" font-size="11" lengthAdjust="spacingAndGlyphs" textLength="172" x="360.5" y="717.2339">vertices: ArrayList&lt;Vertex2D&gt;</text><rect fill="none" height="6" style="stroke: #595959; stroke-width: 1.0;" width="6" x="348.5" y="724.7305"/><text fill="#000000" font-family="sans-serif" font-size="11" lengthAdjust="spacingAndGlyphs" textLength="76" x="360.5" y="730.0386">width: double</text><rect fill="none" height="6" style="stroke: #595959; stroke-width: 1.0;" width="6" x="348.5" y="737.5352"/><text fill="#000000" font-family="sans-serif" font-size="11" lengthAdjust="spacingAndGlyphs" textLength="81" x="360.5" y="742.8433">height: double</text><text fill="#000000" font-family="sans-serif" font-size="11" lengthAdjust="spacingAndGlyphs" textLength="0" x="364.5" y="755.6479"/><rect fill="none" height="6" style="stroke: #595959; stroke-width: 1.0;" width="6" x="348.5" y="763.1445"/><text fill="#000000" font-family="sans-serif" font-size="11" lengthAdjust="spacingAndGlyphs" textLength="95" x="360.5" y="768.4526">center: Vertex2D</text><rect fill="none" height="6" style="stroke: #595959; stroke-width: 1.0;" width="6" x="348.5" y="775.9492"/><text fill="#000000" font-family="sans-serif" font-size="11" lengthAdjust="spacingAndGlyphs" textLength="72" x="360.5" y="781.2573">v0: Vertex2D</text><rect fill="none" height="6" style="stroke: #595959; stroke-width: 1.0;" width="6" x="348.5" y="788.7539"/><text fill="#000000" font-family="sans-serif" font-size="11" lengthAdjust="spacingAndGlyphs" textLength="72" x="360.5" y="794.062">v1: Vertex2D</text><rect fill="none" height="6" style="stroke: #595959; stroke-width: 1.0;" width="6" x="348.5" y="801.5586"/><text fill="#000000" font-family="sans-serif" font-size="11" lengthAdjust="spacingAndGlyphs" textLength="72" x="360.5" y="806.8667">v3: Vertex2D</text><rect fill="none" height="6" style="stroke: #595959; stroke-width: 1.0;" width="6" x="348.5" y="814.3633"/><text fill="#000000" font-family="sans-serif" font-size="11" lengthAdjust="spacingAndGlyphs" textLength="72" x="360.5" y="819.6714">v3: Vertex2D</text><rect fill="none" height="6" style="stroke: #595959; stroke-width: 1.0;" width="6" x="348.5" y="827.168"/><text fill="#000000" font-family="sans-serif" font-size="11" lengthAdjust="spacingAndGlyphs" textLength="172" x="360.5" y="832.4761">vertices: ArrayList&lt;Vertex2D&gt;</text><rect fill="none" height="6" style="stroke: #595959; stroke-width: 1.0;" width="6" x="348.5" y="839.9727"/><text fill="#000000" font-family="sans-serif" font-size="11" lengthAdjust="spacingAndGlyphs" textLength="76" x="360.5" y="845.2808">width: double</text><rect fill="none" height="6" style="stroke: #595959; stroke-width: 1.0;" width="6" x="348.5" y="852.7773"/><text fill="#000000" font-family="sans-serif" font-size="11" lengthAdjust="spacingAndGlyphs" textLength="81" x="360.5" y="858.0854">height: double</text><line style="stroke: #383838; stroke-width: 1.5;" x1="341.5" x2="684.5" y1="864.6797" y2="864.6797"/><ellipse cx="351.5" cy="876.582" fill="#A6A6A6" rx="3" ry="3" style="stroke: #545454; stroke-width: 1.0;"/><text fill="#000000" font-family="sans-serif" font-size="11" lengthAdjust="spacingAndGlyphs" textLength="319" x="360.5" y="878.8901">Rectangle(center:Vertex2D, width:double, height:double)</text><ellipse cx="351.5" cy="889.3867" fill="#A6A6A6" rx="3" ry="3" style="stroke: #545454; stroke-width: 1.0;"/><text fill="#000000" font-family="sans-serif" font-size="11" lengthAdjust="spacingAndGlyphs" textLength="171" x="360.5" y="891.6948">moveBy(dx:double, dy:double)</text><ellipse cx="351.5" cy="902.1914" fill="#A6A6A6" rx="3" ry="3" style="stroke: #545454; stroke-width: 1.0;"/><text fill="#000000" font-family="sans-serif" font-size="11" lengthAdjust="spacingAndGlyphs" textLength="115" x="360.5" y="904.4995">rotate(angle:double)</text><ellipse cx="351.5" cy="914.9961" fill="#A6A6A6" rx="3" ry="3" style="stroke: #545454; stroke-width: 1.0;"/><text fill="#000000" font-family="sans-serif" font-size="11" lengthAdjust="spacingAndGlyphs" textLength="212" x="360.5" y="917.3042">scale(xFactor:double, yFactor:double)</text><ellipse cx="351.5" cy="927.8008" fill="#A6A6A6" rx="3" ry="3" style="stroke: #545454; stroke-width: 1.0;"/><text fill="#000000" font-family="sans-serif" font-size="11" lengthAdjust="spacingAndGlyphs" textLength="123" x="360.5" y="930.1089">getCenter(): Vertex2D</text><ellipse cx="351.5" cy="940.6055" fill="#A6A6A6" rx="3" ry="3" style="stroke: #545454; stroke-width: 1.0;"/><text fill="#000000" font-family="sans-serif" font-size="11" lengthAdjust="spacingAndGlyphs" textLength="146" x="360.5" y="942.9136">getVertex(n:int): Vertex2D</text><ellipse cx="351.5" cy="953.4102" fill="#A6A6A6" rx="3" ry="3" style="stroke: #545454; stroke-width: 1.0;"/><text fill="#000000" font-family="sans-serif" font-size="11" lengthAdjust="spacingAndGlyphs" textLength="95" x="360.5" y="955.7183">toString(): String</text><ellipse cx="351.5" cy="966.2148" fill="#A6A6A6" rx="3" ry="3" style="stroke: #545454; stroke-width: 1.0;"/><text fill="#000000" font-family="sans-serif" font-size="11" lengthAdjust="spacingAndGlyphs" textLength="319" x="360.5" y="968.5229">Rectangle(center:Vertex2D, width:double, height:double)</text><ellipse cx="351.5" cy="979.0195" fill="#A6A6A6" rx="3" ry="3" style="stroke: #545454; stroke-width: 1.0;"/><text fill="#000000" font-family="sans-serif" font-size="11" lengthAdjust="spacingAndGlyphs" textLength="171" x="360.5" y="981.3276">moveBy(dx:double, dy:double)</text><ellipse cx="351.5" cy="991.8242" fill="#A6A6A6" rx="3" ry="3" style="stroke: #545454; stroke-width: 1.0;"/><text fill="#000000" font-family="sans-serif" font-size="11" lengthAdjust="spacingAndGlyphs" textLength="115" x="360.5" y="994.1323">rotate(angle:double)</text><ellipse cx="351.5" cy="1004.6289" fill="#A6A6A6" rx="3" ry="3" style="stroke: #545454; stroke-width: 1.0;"/><text fill="#000000" font-family="sans-serif" font-size="11" lengthAdjust="spacingAndGlyphs" textLength="212" x="360.5" y="1006.937">scale(xFactor:double, yFactor:double)</text><ellipse cx="351.5" cy="1017.4336" fill="#A6A6A6" rx="3" ry="3" style="stroke: #545454; stroke-width: 1.0;"/><text fill="#000000" font-family="sans-serif" font-size="11" lengthAdjust="spacingAndGlyphs" textLength="123" x="360.5" y="1019.7417">getCenter(): Vertex2D</text><ellipse cx="351.5" cy="1030.2383" fill="#A6A6A6" rx="3" ry="3" style="stroke: #545454; stroke-width: 1.0;"/><text fill="#000000" font-family="sans-serif" font-size="11" lengthAdjust="spacingAndGlyphs" textLength="146" x="360.5" y="1032.5464">getVertex(n:int): Vertex2D</text><ellipse cx="351.5" cy="1043.043" fill="#A6A6A6" rx="3" ry="3" style="stroke: #545454; stroke-width: 1.0;"/><text fill="#000000" font-family="sans-serif" font-size="11" lengthAdjust="spacingAndGlyphs" textLength="95" x="360.5" y="1045.3511">toString(): String</text><rect fill="#FFFFFF" filter="url(#f1)" height="227.2656" style="stroke: #383838; stroke-width: 1.5;" width="240" x="720" y="716"/><ellipse cx="813.25" cy="732" fill="#C2C2C2" rx="11" ry="11" style="stroke: #383838; stroke-width: 1.0;"/><path d="M816.2188,737.6406 Q815.6406,737.9375 815,738.0859 Q814.3594,738.2344 813.6563,738.2344 Q811.1563,738.2344 809.8359,736.5859 Q808.5156,734.9375 808.5156,731.8125 Q808.5156,728.6875 809.8359,727.0313 Q811.1563,725.375 813.6563,725.375 Q814.3594,725.375 815.0078,725.5313 Q815.6563,725.6875 816.2188,725.9844 L816.2188,728.7031 Q815.5938,728.125 815,727.8516 Q814.4063,727.5781 813.7813,727.5781 Q812.4375,727.5781 811.75,728.6484 Q811.0625,729.7188 811.0625,731.8125 Q811.0625,733.9063 811.75,734.9766 Q812.4375,736.0469 813.7813,736.0469 Q814.4063,736.0469 815,735.7734 Q815.5938,735.5 816.2188,734.9219 L816.2188,737.6406 Z "/><text fill="#000000" font-family="sans-serif" font-size="12" lengthAdjust="spacingAndGlyphs" textLength="45" x="833.75" y="736.1543">Square</text><line style="stroke: #383838; stroke-width: 1.5;" x1="721" x2="959" y1="748" y2="748"/><rect fill="none" height="6" style="stroke: #595959; stroke-width: 1.0;" width="6" x="728" y="756.9023"/><text fill="#000000" font-family="sans-serif" font-size="11" lengthAdjust="spacingAndGlyphs" textLength="95" x="740" y="762.2104">center: Vertex2D</text><rect fill="none" height="6" style="stroke: #595959; stroke-width: 1.0;" width="6" x="728" y="769.707"/><text fill="#000000" font-family="sans-serif" font-size="11" lengthAdjust="spacingAndGlyphs" textLength="72" x="740" y="775.0151">v0: Vertex2D</text><rect fill="none" height="6" style="stroke: #595959; stroke-width: 1.0;" width="6" x="728" y="782.5117"/><text fill="#000000" font-family="sans-serif" font-size="11" lengthAdjust="spacingAndGlyphs" textLength="72" x="740" y="787.8198">v1: Vertex2D</text><rect fill="none" height="6" style="stroke: #595959; stroke-width: 1.0;" width="6" x="728" y="795.3164"/><text fill="#000000" font-family="sans-serif" font-size="11" lengthAdjust="spacingAndGlyphs" textLength="72" x="740" y="800.6245">v3: Vertex2D</text><rect fill="none" height="6" style="stroke: #595959; stroke-width: 1.0;" width="6" x="728" y="808.1211"/><text fill="#000000" font-family="sans-serif" font-size="11" lengthAdjust="spacingAndGlyphs" textLength="72" x="740" y="813.4292">v3: Vertex2D</text><rect fill="none" height="6" style="stroke: #595959; stroke-width: 1.0;" width="6" x="728" y="820.9258"/><text fill="#000000" font-family="sans-serif" font-size="11" lengthAdjust="spacingAndGlyphs" textLength="172" x="740" y="826.2339">vertices: ArrayList&lt;Vertex2D&gt;</text><rect fill="none" height="6" style="stroke: #595959; stroke-width: 1.0;" width="6" x="728" y="833.7305"/><text fill="#000000" font-family="sans-serif" font-size="11" lengthAdjust="spacingAndGlyphs" textLength="70" x="740" y="839.0386">side: double</text><line style="stroke: #383838; stroke-width: 1.5;" x1="721" x2="959" y1="845.6328" y2="845.6328"/><ellipse cx="731" cy="857.5352" fill="#A6A6A6" rx="3" ry="3" style="stroke: #545454; stroke-width: 1.0;"/><text fill="#000000" font-family="sans-serif" font-size="11" lengthAdjust="spacingAndGlyphs" textLength="214" x="740" y="859.8433">Square(center:Vertex2D, side:double)</text><ellipse cx="731" cy="870.3398" fill="#A6A6A6" rx="3" ry="3" style="stroke: #545454; stroke-width: 1.0;"/><text fill="#000000" font-family="sans-serif" font-size="11" lengthAdjust="spacingAndGlyphs" textLength="171" x="740" y="872.6479">moveBy(dx:double, dy:double)</text><ellipse cx="731" cy="883.1445" fill="#A6A6A6" rx="3" ry="3" style="stroke: #545454; stroke-width: 1.0;"/><text fill="#000000" font-family="sans-serif" font-size="11" lengthAdjust="spacingAndGlyphs" textLength="115" x="740" y="885.4526">rotate(angle:double)</text><ellipse cx="731" cy="895.9492" fill="#A6A6A6" rx="3" ry="3" style="stroke: #545454; stroke-width: 1.0;"/><text fill="#000000" font-family="sans-serif" font-size="11" lengthAdjust="spacingAndGlyphs" textLength="212" x="740" y="898.2573">scale(xFactor:double, yFactor:double)</text><ellipse cx="731" cy="908.7539" fill="#A6A6A6" rx="3" ry="3" style="stroke: #545454; stroke-width: 1.0;"/><text fill="#000000" font-family="sans-serif" font-size="11" lengthAdjust="spacingAndGlyphs" textLength="123" x="740" y="911.062">getCenter(): Vertex2D</text><ellipse cx="731" cy="921.5586" fill="#A6A6A6" rx="3" ry="3" style="stroke: #545454; stroke-width: 1.0;"/><text fill="#000000" font-family="sans-serif" font-size="11" lengthAdjust="spacingAndGlyphs" textLength="146" x="740" y="923.8667">getVertex(n:int): Vertex2D</text><ellipse cx="731" cy="934.3633" fill="#A6A6A6" rx="3" ry="3" style="stroke: #545454; stroke-width: 1.0;"/><text fill="#000000" font-family="sans-serif" font-size="11" lengthAdjust="spacingAndGlyphs" textLength="95" x="740" y="936.6714">toString(): String</text><path d="M38,277.145 C38,285.441 38,293.847 38,302.249 " fill="none" style="stroke: #383838; stroke-width: 1.0;"/><ellipse cx="38" cy="269.863" fill="#FFFFFF" rx="8" ry="8" style="stroke: #383838; stroke-width: 1.0;"/><line style="stroke: #383838; stroke-width: 1.0;" x1="38" x2="38" y1="277.863" y2="261.863"/><line style="stroke: #383838; stroke-width: 1.0;" x1="30" x2="46" y1="269.863" y2="269.863"/></g></svg>