<?xml version="1.0" encoding="UTF-8" standalone="yes"?><svg xmlns="http://www.w3.org/2000/svg" xmlns:xlink="http://www.w3.org/1999/xlink" height="423px" style="width:1555px;height:423px;" version="1.1" viewBox="0 0 1555 423" width="1555.2001px"><defs><filter height="300%" id="f1" width="300%" x="-1" y="-1"><feGaussianBlur result="blurOut" stdDeviation="1.2000000476837158"/><feColorMatrix in="blurOut" result="blurOut2" type="matrix" values="0 0 0 0 0 0 0 0 0 0 0 0 0 0 0 0 0 0 .4 0"/><feOffset dx="2.4000000953674316" dy="2.4000000953674316" in="blurOut2" result="blurOut3"/><feBlend in="SourceGraphic" in2="blurOut3" mode="normal"/></filter></defs><g><polygon fill="#FFFFFF" filter="url(#f1)" points="13.2,14.4,121.2,14.4,125.4,27.7781,1551.0001,27.7781,1551.0001,380.4,13.2,380.4,13.2,14.4" style="stroke: #000000; stroke-width: 1.2000000476837158;"/><line style="stroke: #000000; stroke-width: 1.2000000476837158;" x1="13.2" x2="125.4" y1="27.7781" y2="27.7781"/><text fill="#000000" font-family="sans-serif" font-size="8.4" font-weight="bold" lengthAdjust="spacingAndGlyphs" textLength="104.4" x="15" y="23.9971">se.hig.oodp.lab.model</text><polygon fill="#FFFFFF" filter="url(#f1)" points="1080.6,67.2,1250.4,67.2,1254.6,80.5781,1536.6001,80.5781,1536.6001,339.3,1080.6,339.3,1080.6,67.2" style="stroke: #000000; stroke-width: 1.2000000476837158;"/><line style="stroke: #000000; stroke-width: 1.2000000476837158;" x1="1080.6" x2="1254.6" y1="80.5781" y2="80.5781"/><text fill="#000000" font-family="sans-serif" font-size="8.4" font-weight="bold" lengthAdjust="spacingAndGlyphs" textLength="166.2" x="1082.4" y="76.7971">se.hig.oodp.lab.model.simplefigure</text><polygon fill="#FFFFFF" filter="url(#f1)" points="27.6,40.2,166.8,40.2,171,53.5781,829.8,53.5781,829.8,366,27.6,366,27.6,40.2" style="stroke: #000000; stroke-width: 1.2000000476837158;"/><line style="stroke: #000000; stroke-width: 1.2000000476837158;" x1="27.6" x2="171" y1="53.5781" y2="53.5781"/><text fill="#000000" font-family="sans-serif" font-size="8.4" font-weight="bold" lengthAdjust="spacingAndGlyphs" textLength="135.6" x="29.4" y="49.7971">se.hig.oodp.lab.model.figure</text><rect fill="#FFFFFF" filter="url(#f1)" height="102.7453" style="stroke: #383838; stroke-width: 0.9000000357627869;" width="228" x="841.2" y="234.6"/><ellipse cx="935.55" cy="244.2" fill="#C2C2C2" rx="6.6" ry="6.6" style="stroke: #383838; stroke-width: 0.6000000238418579;"/><path d="M937.3313,247.5844 Q936.9844,247.7625 936.6,247.8516 Q936.2157,247.9406 935.7938,247.9406 Q934.2938,247.9406 933.5016,246.9516 Q932.7094,245.9625 932.7094,244.0875 Q932.7094,242.2125 933.5016,241.2188 Q934.2938,240.225 935.7938,240.225 Q936.2157,240.225 936.6047,240.3188 Q936.9938,240.4125 937.3313,240.5906 L937.3313,242.2219 Q936.9563,241.875 936.6,241.7109 Q936.2438,241.5469 935.8688,241.5469 Q935.0625,241.5469 934.65,242.1891 Q934.2375,242.8313 934.2375,244.0875 Q934.2375,245.3438 934.65,245.9859 Q935.0625,246.6281 935.8688,246.6281 Q936.2438,246.6281 936.6,246.4641 Q936.9563,246.3 937.3313,245.9531 L937.3313,247.5844 Z "/><text fill="#000000" font-family="sans-serif" font-size="7.2" lengthAdjust="spacingAndGlyphs" textLength="34.2" x="947.85" y="246.6926">Vertex2D</text><line style="stroke: #383838; stroke-width: 0.9000000357627869;" x1="841.8" x2="1068.6" y1="253.8" y2="253.8"/><rect fill="none" height="3.6" style="stroke: #595959; stroke-width: 0.6000000238418579;" width="3.6" x="846" y="259.1414"/><text fill="#000000" font-family="sans-serif" font-size="6.6" lengthAdjust="spacingAndGlyphs" textLength="28.8" x="853.2" y="262.3263">x:double</text><rect fill="none" height="3.6" style="stroke: #595959; stroke-width: 0.6000000238418579;" width="3.6" x="846" y="266.8242"/><text fill="#000000" font-family="sans-serif" font-size="6.6" lengthAdjust="spacingAndGlyphs" textLength="28.8" x="853.2" y="270.0091">y:double</text><line style="stroke: #383838; stroke-width: 0.6000000238418579;" x1="841.8" x2="1068.6" y1="273.9656" y2="273.9656"/><ellipse cx="847.8" cy="281.107" fill="#A6A6A6" rx="1.8" ry="1.8" style="stroke: #545454; stroke-width: 0.6000000238418579;"/><text fill="#000000" font-family="sans-serif" font-size="6.6" lengthAdjust="spacingAndGlyphs" textLength="97.8" x="853.2" y="282.4919">Vertex2D(x:double, y:double)</text><line style="stroke: #383838; stroke-width: 0.6000000238418579; stroke-dasharray: 1.0,2.0;" x1="841.8" x2="1068.6" y1="286.4484" y2="286.4484"/><ellipse cx="847.8" cy="293.5899" fill="#A6A6A6" rx="1.8" ry="1.8" style="stroke: #545454; stroke-width: 0.6000000238418579;"/><text fill="#000000" font-family="sans-serif" font-size="6.6" lengthAdjust="spacingAndGlyphs" textLength="45" x="853.2" y="294.9747">getX():double</text><ellipse cx="847.8" cy="301.2727" fill="#A6A6A6" rx="1.8" ry="1.8" style="stroke: #545454; stroke-width: 0.6000000238418579;"/><text fill="#000000" font-family="sans-serif" font-size="6.6" lengthAdjust="spacingAndGlyphs" textLength="45" x="853.2" y="302.6575">getY():double</text><ellipse cx="847.8" cy="308.9555" fill="#A6A6A6" rx="1.8" ry="1.8" style="stroke: #545454; stroke-width: 0.6000000238418579;"/><text fill="#000000" font-family="sans-serif" font-size="6.6" lengthAdjust="spacingAndGlyphs" textLength="135.6" x="853.2" y="310.3403">moveBy(dx:double, dy:double):Vertex2D</text><ellipse cx="847.8" cy="316.6383" fill="#A6A6A6" rx="1.8" ry="1.8" style="stroke: #545454; stroke-width: 0.6000000238418579;"/><text fill="#000000" font-family="sans-serif" font-size="6.6" lengthAdjust="spacingAndGlyphs" textLength="149.4" x="853.2" y="318.0232">rotate(ref:Vertex2D, angle:double):Vertex2D</text><ellipse cx="847.8" cy="324.3211" fill="#A6A6A6" rx="1.8" ry="1.8" style="stroke: #545454; stroke-width: 0.6000000238418579;"/><text fill="#000000" font-family="sans-serif" font-size="6.6" lengthAdjust="spacingAndGlyphs" textLength="212.4" x="853.2" y="325.706">scale(ref:Vertex2D, x_factor:double, y_factor:double):Vertex2D</text><ellipse cx="847.8" cy="332.0039" fill="#A6A6A6" rx="1.8" ry="1.8" style="stroke: #545454; stroke-width: 0.6000000238418579;"/><text fill="#000000" font-family="sans-serif" font-size="6.6" lengthAdjust="spacingAndGlyphs" textLength="54.6" x="853.2" y="333.3888">toString():String</text><rect fill="#FFFFFF" filter="url(#f1)" height="64.3313" style="stroke: #383838; stroke-width: 0.9000000357627869;" width="118.2" x="1153.5" y="88.2"/><ellipse cx="1186.05" cy="97.8" fill="#CDCDCD" rx="6.6" ry="6.6" style="stroke: #383838; stroke-width: 0.6000000238418579;"/><path d="M1186.1157,95.0063 L1185.4219,98.0531 L1186.8188,98.0531 L1186.1157,95.0063 Z M1185.225,93.6656 L1187.0157,93.6656 L1189.0313,101.1 L1187.5594,101.1 L1187.1,99.2625 L1185.1313,99.2625 L1184.6813,101.1 L1183.2188,101.1 L1185.225,93.6656 Z "/><text fill="#000000" font-family="sans-serif" font-size="7.2" font-style="italic" lengthAdjust="spacingAndGlyphs" textLength="48" x="1198.35" y="100.2926">SimpleFigure</text><line style="stroke: #383838; stroke-width: 0.9000000357627869;" x1="1154.1" x2="1271.1001" y1="107.4" y2="107.4"/><polygon fill="none" points="1160.1,111.5414,1162.5,113.9414,1160.1,116.3414,1157.7,113.9414" style="stroke: #8C8C8C; stroke-width: 0.6000000238418579;"/><text fill="#000000" font-family="sans-serif" font-size="6.6" lengthAdjust="spacingAndGlyphs" textLength="60" x="1165.5" y="115.9263">position:Vertex2D</text><line style="stroke: #383838; stroke-width: 0.6000000238418579;" x1="1154.1" x2="1271.1001" y1="119.8828" y2="119.8828"/><text fill="#000000" font-family="sans-serif" font-size="6.6" lengthAdjust="spacingAndGlyphs" textLength="109.2" x="1157.1" y="128.4091">SimpleFigure(position:Vertex2D)</text><line style="stroke: #383838; stroke-width: 0.6000000238418579; stroke-dasharray: 1.0,2.0;" x1="1154.1" x2="1271.1001" y1="132.3656" y2="132.3656"/><ellipse cx="1160.1" cy="139.507" fill="#A6A6A6" rx="1.8" ry="1.8" style="stroke: #545454; stroke-width: 0.6000000238418579;"/><text fill="#000000" font-family="sans-serif" font-size="6.6" lengthAdjust="spacingAndGlyphs" textLength="102.6" x="1165.5" y="140.8919">moveBy(dx:double, dy:double)</text><ellipse cx="1160.1" cy="147.1898" fill="#A6A6A6" rx="1.8" ry="1.8" style="stroke: #545454; stroke-width: 0.6000000238418579;"/><text fill="#000000" font-family="sans-serif" font-size="6.6" lengthAdjust="spacingAndGlyphs" textLength="75.6" x="1165.5" y="148.5747">getPosition():Vertex2D</text><rect fill="#FFFFFF" filter="url(#f1)" height="44.1656" style="stroke: #383838; stroke-width: 0.9000000357627869;" width="88.8" x="1090.2" y="263.7"/><ellipse cx="1122.45" cy="273.3" fill="#C2C2C2" rx="6.6" ry="6.6" style="stroke: #383838; stroke-width: 0.6000000238418579;"/><path d="M1124.2313,276.6844 Q1123.8844,276.8625 1123.5,276.9516 Q1123.1157,277.0406 1122.6938,277.0406 Q1121.1938,277.0406 1120.4016,276.0516 Q1119.6094,275.0625 1119.6094,273.1875 Q1119.6094,271.3125 1120.4016,270.3188 Q1121.1938,269.325 1122.6938,269.325 Q1123.1157,269.325 1123.5047,269.4188 Q1123.8938,269.5125 1124.2313,269.6906 L1124.2313,271.3219 Q1123.8563,270.975 1123.5,270.8109 Q1123.1438,270.6469 1122.7688,270.6469 Q1121.9625,270.6469 1121.55,271.2891 Q1121.1375,271.9313 1121.1375,273.1875 Q1121.1375,274.4438 1121.55,275.0859 Q1121.9625,275.7281 1122.7688,275.7281 Q1123.1438,275.7281 1123.5,275.5641 Q1123.8563,275.4 1124.2313,275.0531 L1124.2313,276.6844 Z "/><text fill="#000000" font-family="sans-serif" font-size="7.2" lengthAdjust="spacingAndGlyphs" textLength="19.2" x="1134.75" y="275.7926">Point</text><line style="stroke: #383838; stroke-width: 0.9000000357627869;" x1="1090.8" x2="1178.4" y1="282.9" y2="282.9"/><text fill="#000000" font-family="sans-serif" font-size="6.6" lengthAdjust="spacingAndGlyphs" textLength="81.6" x="1093.8" y="291.4263">Point(position:Vertex2D)</text><line style="stroke: #383838; stroke-width: 0.6000000238418579; stroke-dasharray: 1.0,2.0;" x1="1090.8" x2="1178.4" y1="295.3828" y2="295.3828"/><ellipse cx="1096.8" cy="302.5242" fill="#A6A6A6" rx="1.8" ry="1.8" style="stroke: #545454; stroke-width: 0.6000000238418579;"/><text fill="#000000" font-family="sans-serif" font-size="6.6" lengthAdjust="spacingAndGlyphs" textLength="54.6" x="1102.2" y="303.9091">toString():String</text><rect fill="#FFFFFF" filter="url(#f1)" height="72.0141" style="stroke: #383838; stroke-width: 0.9000000357627869;" width="151.2" x="1200" y="249.9"/><ellipse cx="1262.8501" cy="259.5" fill="#C2C2C2" rx="6.6" ry="6.6" style="stroke: #383838; stroke-width: 0.6000000238418579;"/><path d="M1264.6313,262.8844 Q1264.2844,263.0625 1263.9001,263.1516 Q1263.5157,263.2406 1263.0938,263.2406 Q1261.5938,263.2406 1260.8016,262.2516 Q1260.0094,261.2625 1260.0094,259.3875 Q1260.0094,257.5125 1260.8016,256.5188 Q1261.5938,255.525 1263.0938,255.525 Q1263.5157,255.525 1263.9047,255.6188 Q1264.2938,255.7125 1264.6313,255.8906 L1264.6313,257.5219 Q1264.2563,257.175 1263.9001,257.0109 Q1263.5438,256.8469 1263.1688,256.8469 Q1262.3626,256.8469 1261.9501,257.4891 Q1261.5376,258.1313 1261.5376,259.3875 Q1261.5376,260.6438 1261.9501,261.2859 Q1262.3626,261.9281 1263.1688,261.9281 Q1263.5438,261.9281 1263.9001,261.7641 Q1264.2563,261.6 1264.6313,261.2531 L1264.6313,262.8844 Z "/><text fill="#000000" font-family="sans-serif" font-size="7.2" lengthAdjust="spacingAndGlyphs" textLength="20.4" x="1275.1501" y="261.9926">Circle</text><line style="stroke: #383838; stroke-width: 0.9000000357627869;" x1="1200.6" x2="1350.6001" y1="269.1" y2="269.1"/><rect fill="none" height="3.6" style="stroke: #595959; stroke-width: 0.6000000238418579;" width="3.6" x="1204.8" y="274.4414"/><text fill="#000000" font-family="sans-serif" font-size="6.6" lengthAdjust="spacingAndGlyphs" textLength="46.8" x="1212" y="277.6263">radius:double</text><line style="stroke: #383838; stroke-width: 0.6000000238418579;" x1="1200.6" x2="1350.6001" y1="281.5828" y2="281.5828"/><ellipse cx="1206.6" cy="288.7242" fill="#A6A6A6" rx="1.8" ry="1.8" style="stroke: #545454; stroke-width: 0.6000000238418579;"/><text fill="#000000" font-family="sans-serif" font-size="6.6" lengthAdjust="spacingAndGlyphs" textLength="135.6" x="1212" y="290.1091">Circle(position:Vertex2D, radius:double)</text><line style="stroke: #383838; stroke-width: 0.6000000238418579; stroke-dasharray: 1.0,2.0;" x1="1200.6" x2="1350.6001" y1="294.0656" y2="294.0656"/><ellipse cx="1206.6" cy="301.207" fill="#A6A6A6" rx="1.8" ry="1.8" style="stroke: #545454; stroke-width: 0.6000000238418579;"/><text fill="#000000" font-family="sans-serif" font-size="6.6" lengthAdjust="spacingAndGlyphs" textLength="67.8" x="1212" y="302.5919">scale(factor:double)</text><ellipse cx="1206.6" cy="308.8899" fill="#A6A6A6" rx="1.8" ry="1.8" style="stroke: #545454; stroke-width: 0.6000000238418579;"/><text fill="#000000" font-family="sans-serif" font-size="6.6" lengthAdjust="spacingAndGlyphs" textLength="63.6" x="1212" y="310.2747">getRadius():double</text><ellipse cx="1206.6" cy="316.5727" fill="#A6A6A6" rx="1.8" ry="1.8" style="stroke: #545454; stroke-width: 0.6000000238418579;"/><text fill="#000000" font-family="sans-serif" font-size="6.6" lengthAdjust="spacingAndGlyphs" textLength="54.6" x="1212" y="317.9575">toString():String</text><rect fill="#FFFFFF" filter="url(#f1)" height="87.3797" style="stroke: #383838; stroke-width: 0.9000000357627869;" width="154.2" x="1372.5001" y="242.1"/><ellipse cx="1435.0501" cy="251.7" fill="#C2C2C2" rx="6.6" ry="6.6" style="stroke: #383838; stroke-width: 0.6000000238418579;"/><path d="M1436.8313,255.0844 Q1436.4844,255.2625 1436.1001,255.3516 Q1435.7157,255.4406 1435.2938,255.4406 Q1433.7938,255.4406 1433.0016,254.4516 Q1432.2094,253.4625 1432.2094,251.5875 Q1432.2094,249.7125 1433.0016,248.7188 Q1433.7938,247.725 1435.2938,247.725 Q1435.7157,247.725 1436.1047,247.8188 Q1436.4938,247.9125 1436.8313,248.0906 L1436.8313,249.7219 Q1436.4563,249.375 1436.1001,249.2109 Q1435.7438,249.0469 1435.3688,249.0469 Q1434.5626,249.0469 1434.1501,249.6891 Q1433.7376,250.3313 1433.7376,251.5875 Q1433.7376,252.8438 1434.1501,253.4859 Q1434.5626,254.1281 1435.3688,254.1281 Q1435.7438,254.1281 1436.1001,253.9641 Q1436.4563,253.8 1436.8313,253.4531 L1436.8313,255.0844 Z "/><text fill="#000000" font-family="sans-serif" font-size="7.2" lengthAdjust="spacingAndGlyphs" textLength="24" x="1447.3501" y="254.1926">Ellipse</text><line style="stroke: #383838; stroke-width: 0.9000000357627869;" x1="1373.1001" x2="1526.1001" y1="261.3" y2="261.3"/><rect fill="none" height="3.6" style="stroke: #595959; stroke-width: 0.6000000238418579;" width="3.6" x="1377.3001" y="266.6414"/><text fill="#000000" font-family="sans-serif" font-size="6.6" lengthAdjust="spacingAndGlyphs" textLength="43.2" x="1384.5001" y="269.8263">width:double</text><rect fill="none" height="3.6" style="stroke: #595959; stroke-width: 0.6000000238418579;" width="3.6" x="1377.3001" y="274.3242"/><text fill="#000000" font-family="sans-serif" font-size="6.6" lengthAdjust="spacingAndGlyphs" textLength="46.2" x="1384.5001" y="277.5091">height:double</text><line style="stroke: #383838; stroke-width: 0.6000000238418579;" x1="1373.1001" x2="1526.1001" y1="281.4656" y2="281.4656"/><ellipse cx="1379.1001" cy="288.607" fill="#A6A6A6" rx="1.8" ry="1.8" style="stroke: #545454; stroke-width: 0.6000000238418579;"/><text fill="#000000" font-family="sans-serif" font-size="6.6" lengthAdjust="spacingAndGlyphs" textLength="138.6" x="1384.5001" y="289.9919">Ellipse(position:Vertex2D, radius:double)</text><line style="stroke: #383838; stroke-width: 0.6000000238418579; stroke-dasharray: 1.0,2.0;" x1="1373.1001" x2="1526.1001" y1="293.9484" y2="293.9484"/><ellipse cx="1379.1001" cy="301.0899" fill="#A6A6A6" rx="1.8" ry="1.8" style="stroke: #545454; stroke-width: 0.6000000238418579;"/><text fill="#000000" font-family="sans-serif" font-size="6.6" lengthAdjust="spacingAndGlyphs" textLength="127.2" x="1384.5001" y="302.4747">scale(xFactor:double, yFactor:double)</text><ellipse cx="1379.1001" cy="308.7727" fill="#A6A6A6" rx="1.8" ry="1.8" style="stroke: #545454; stroke-width: 0.6000000238418579;"/><text fill="#000000" font-family="sans-serif" font-size="6.6" lengthAdjust="spacingAndGlyphs" textLength="58.8" x="1384.5001" y="310.1575">getWidth():double</text><ellipse cx="1379.1001" cy="316.4555" fill="#A6A6A6" rx="1.8" ry="1.8" style="stroke: #545454; stroke-width: 0.6000000238418579;"/><text fill="#000000" font-family="sans-serif" font-size="6.6" lengthAdjust="spacingAndGlyphs" textLength="62.4" x="1384.5001" y="317.8403">getHeight():double</text><ellipse cx="1379.1001" cy="324.1383" fill="#A6A6A6" rx="1.8" ry="1.8" style="stroke: #545454; stroke-width: 0.6000000238418579;"/><text fill="#000000" font-family="sans-serif" font-size="6.6" lengthAdjust="spacingAndGlyphs" textLength="54.6" x="1384.5001" y="325.5232">toString():String</text><rect fill="#FFFFFF" filter="url(#f1)" height="118.1109" style="stroke: #383838; stroke-width: 0.9000000357627869;" width="162.6" x="458.1" y="61.2"/><ellipse cx="525.15" cy="70.8" fill="#CDCDCD" rx="6.6" ry="6.6" style="stroke: #383838; stroke-width: 0.6000000238418579;"/><path d="M525.2156,68.0063 L524.5219,71.0531 L525.9188,71.0531 L525.2156,68.0063 Z M524.325,66.6656 L526.1156,66.6656 L528.1313,74.1 L526.6594,74.1 L526.2,72.2625 L524.2313,72.2625 L523.7813,74.1 L522.3188,74.1 L524.325,66.6656 Z "/><text fill="#000000" font-family="sans-serif" font-size="7.2" font-style="italic" lengthAdjust="spacingAndGlyphs" textLength="23.4" x="537.45" y="73.2926">Figure</text><line style="stroke: #383838; stroke-width: 0.9000000357627869;" x1="458.7" x2="620.1" y1="80.4" y2="80.4"/><ellipse cx="464.7" cy="87.5414" fill="none" rx="1.8" ry="1.8" style="stroke: #545454; stroke-width: 0.6000000238418579;"/><text fill="#000000" font-family="sans-serif" font-size="6.6" lengthAdjust="spacingAndGlyphs" textLength="90.6" x="470.1" y="88.9263">DEFAULT_X_COORD:double</text><ellipse cx="464.7" cy="95.2242" fill="none" rx="1.8" ry="1.8" style="stroke: #545454; stroke-width: 0.6000000238418579;"/><text fill="#000000" font-family="sans-serif" font-size="6.6" lengthAdjust="spacingAndGlyphs" textLength="90.6" x="470.1" y="96.6091">DEFAULT_Y_COORD:double</text><polygon fill="none" points="464.7,99.907,467.1,102.307,464.7,104.707,462.3,102.307" style="stroke: #8C8C8C; stroke-width: 0.6000000238418579;"/><text fill="#000000" font-family="sans-serif" font-size="6.6" lengthAdjust="spacingAndGlyphs" textLength="54.6" x="470.1" y="104.2919">center:Vertex2D</text><polygon fill="none" points="464.7,107.5898,467.1,109.9898,464.7,112.3898,462.3,109.9898" style="stroke: #8C8C8C; stroke-width: 0.6000000238418579;"/><text fill="#000000" font-family="sans-serif" font-size="6.6" lengthAdjust="spacingAndGlyphs" textLength="100.8" x="470.1" y="111.9747">vertices:ArrayList&lt;Vertex2D&gt;</text><line style="stroke: #383838; stroke-width: 0.6000000238418579;" x1="458.7" x2="620.1" y1="115.9313" y2="115.9313"/><ellipse cx="464.7" cy="123.0727" fill="#A6A6A6" rx="1.8" ry="1.8" style="stroke: #545454; stroke-width: 0.6000000238418579;"/><text fill="#000000" font-family="sans-serif" font-size="6.6" lengthAdjust="spacingAndGlyphs" textLength="80.4" x="470.1" y="124.4575">Figure(center:Vertex2D)</text><line style="stroke: #383838; stroke-width: 0.6000000238418579; stroke-dasharray: 1.0,2.0;" x1="458.7" x2="620.1" y1="128.4141" y2="128.4141"/><rect fill="#808080" height="3.6" style="stroke: #595959; stroke-width: 0.6000000238418579;" width="3.6" x="462.9" y="133.7555"/><text fill="#000000" font-family="sans-serif" font-size="6.6" lengthAdjust="spacingAndGlyphs" textLength="147" x="470.1" y="136.9403">addVerticesToList(newVertices:Vertex2D...)</text><ellipse cx="464.7" cy="143.2383" fill="#A6A6A6" rx="1.8" ry="1.8" style="stroke: #545454; stroke-width: 0.6000000238418579;"/><text fill="#000000" font-family="sans-serif" font-size="6.6" lengthAdjust="spacingAndGlyphs" textLength="69" x="470.1" y="144.6232">rotate(angle:double)</text><ellipse cx="464.7" cy="150.9211" fill="#A6A6A6" rx="1.8" ry="1.8" style="stroke: #545454; stroke-width: 0.6000000238418579;"/><text fill="#000000" font-family="sans-serif" font-size="6.6" font-style="italic" lengthAdjust="spacingAndGlyphs" textLength="127.8" x="470.1" y="152.306">scale(xFactor:double, yFactor:double)</text><ellipse cx="464.7" cy="158.6039" fill="#A6A6A6" rx="1.8" ry="1.8" style="stroke: #545454; stroke-width: 0.6000000238418579;"/><text fill="#000000" font-family="sans-serif" font-size="6.6" lengthAdjust="spacingAndGlyphs" textLength="102.6" x="470.1" y="159.9888">moveBy(dx:double, dy:double)</text><ellipse cx="464.7" cy="166.2867" fill="#A6A6A6" rx="1.8" ry="1.8" style="stroke: #545454; stroke-width: 0.6000000238418579;"/><text fill="#000000" font-family="sans-serif" font-size="6.6" lengthAdjust="spacingAndGlyphs" textLength="71.4" x="470.1" y="167.6716">getCenter():Vertex2D</text><ellipse cx="464.7" cy="173.9695" fill="#A6A6A6" rx="1.8" ry="1.8" style="stroke: #545454; stroke-width: 0.6000000238418579;"/><text fill="#000000" font-family="sans-serif" font-size="6.6" lengthAdjust="spacingAndGlyphs" textLength="85.2" x="470.1" y="175.3544">getVertex(n:int):Vertex2D</text><rect fill="#FFFFFF" filter="url(#f1)" height="79.6969" style="stroke: #383838; stroke-width: 0.9000000357627869;" width="142.8" x="37.2" y="246"/><ellipse cx="98.55" cy="255.6" fill="#C2C2C2" rx="6.6" ry="6.6" style="stroke: #383838; stroke-width: 0.6000000238418579;"/><path d="M100.3313,258.9844 Q99.9844,259.1625 99.6,259.2516 Q99.2156,259.3406 98.7938,259.3406 Q97.2938,259.3406 96.5016,258.3516 Q95.7094,257.3625 95.7094,255.4875 Q95.7094,253.6125 96.5016,252.6188 Q97.2938,251.625 98.7938,251.625 Q99.2156,251.625 99.6047,251.7188 Q99.9938,251.8125 100.3313,251.9906 L100.3313,253.6219 Q99.9563,253.275 99.6,253.1109 Q99.2438,252.9469 98.8688,252.9469 Q98.0625,252.9469 97.65,253.5891 Q97.2375,254.2313 97.2375,255.4875 Q97.2375,256.7438 97.65,257.3859 Q98.0625,258.0281 98.8688,258.0281 Q99.2438,258.0281 99.6,257.8641 Q99.9563,257.7 100.3313,257.3531 L100.3313,258.9844 Z "/><text fill="#000000" font-family="sans-serif" font-size="7.2" lengthAdjust="spacingAndGlyphs" textLength="15" x="110.85" y="258.0926">Line</text><line style="stroke: #383838; stroke-width: 0.9000000357627869;" x1="37.8" x2="179.4" y1="265.2" y2="265.2"/><rect fill="none" height="3.6" style="stroke: #595959; stroke-width: 0.6000000238418579;" width="3.6" x="42" y="270.5414"/><text fill="#000000" font-family="sans-serif" font-size="6.6" lengthAdjust="spacingAndGlyphs" textLength="40.8" x="49.2" y="273.7263">v0:Vertex2D</text><rect fill="none" height="3.6" style="stroke: #595959; stroke-width: 0.6000000238418579;" width="3.6" x="42" y="278.2242"/><text fill="#000000" font-family="sans-serif" font-size="6.6" lengthAdjust="spacingAndGlyphs" textLength="40.8" x="49.2" y="281.4091">v1:Vertex2D</text><line style="stroke: #383838; stroke-width: 0.6000000238418579;" x1="37.8" x2="179.4" y1="285.3656" y2="285.3656"/><ellipse cx="43.8" cy="292.507" fill="#A6A6A6" rx="1.8" ry="1.8" style="stroke: #545454; stroke-width: 0.6000000238418579;"/><text fill="#000000" font-family="sans-serif" font-size="6.6" lengthAdjust="spacingAndGlyphs" textLength="105" x="49.2" y="293.8919">Line(v0:Vertex2D, v1:Vertex2D)</text><line style="stroke: #383838; stroke-width: 0.6000000238418579; stroke-dasharray: 1.0,2.0;" x1="37.8" x2="179.4" y1="297.8484" y2="297.8484"/><rect fill="#808080" height="3.6" style="stroke: #595959; stroke-width: 0.6000000238418579;" width="3.6" x="42" y="303.1899"/><text fill="#000000" font-family="sans-serif" font-size="6.6" lengthAdjust="spacingAndGlyphs" textLength="67.8" x="49.2" y="306.3747">updateCenterPoint()</text><ellipse cx="43.8" cy="312.6727" fill="#A6A6A6" rx="1.8" ry="1.8" style="stroke: #545454; stroke-width: 0.6000000238418579;"/><text fill="#000000" font-family="sans-serif" font-size="6.6" lengthAdjust="spacingAndGlyphs" textLength="127.2" x="49.2" y="314.0575">scale(xFactor:double, yFactor:double)</text><ellipse cx="43.8" cy="320.3555" fill="#A6A6A6" rx="1.8" ry="1.8" style="stroke: #545454; stroke-width: 0.6000000238418579;"/><text fill="#000000" font-family="sans-serif" font-size="6.6" lengthAdjust="spacingAndGlyphs" textLength="54.6" x="49.2" y="321.7403">toString():String</text><rect fill="#FFFFFF" filter="url(#f1)" height="118.1109" style="stroke: #383838; stroke-width: 0.9000000357627869;" width="201.6" x="201" y="226.8"/><ellipse cx="284.25" cy="236.4" fill="#C2C2C2" rx="6.6" ry="6.6" style="stroke: #383838; stroke-width: 0.6000000238418579;"/><path d="M286.0313,239.7844 Q285.6844,239.9625 285.3,240.0516 Q284.9156,240.1406 284.4938,240.1406 Q282.9938,240.1406 282.2016,239.1516 Q281.4094,238.1625 281.4094,236.2875 Q281.4094,234.4125 282.2016,233.4188 Q282.9938,232.425 284.4938,232.425 Q284.9156,232.425 285.3047,232.5188 Q285.6938,232.6125 286.0313,232.7906 L286.0313,234.4219 Q285.6563,234.075 285.3,233.9109 Q284.9438,233.7469 284.5688,233.7469 Q283.7625,233.7469 283.35,234.3891 Q282.9375,235.0313 282.9375,236.2875 Q282.9375,237.5438 283.35,238.1859 Q283.7625,238.8281 284.5688,238.8281 Q284.9438,238.8281 285.3,238.6641 Q285.6563,238.5 286.0313,238.1531 L286.0313,239.7844 Z "/><text fill="#000000" font-family="sans-serif" font-size="7.2" lengthAdjust="spacingAndGlyphs" textLength="30" x="296.55" y="238.8926">Triangle</text><line style="stroke: #383838; stroke-width: 0.9000000357627869;" x1="201.6" x2="402" y1="246" y2="246"/><rect fill="none" height="3.6" style="stroke: #595959; stroke-width: 0.6000000238418579;" width="3.6" x="205.8" y="251.3414"/><text fill="#000000" font-family="sans-serif" font-size="6.6" lengthAdjust="spacingAndGlyphs" textLength="40.8" x="213" y="254.5263">v0:Vertex2D</text><rect fill="none" height="3.6" style="stroke: #595959; stroke-width: 0.6000000238418579;" width="3.6" x="205.8" y="259.0242"/><text fill="#000000" font-family="sans-serif" font-size="6.6" lengthAdjust="spacingAndGlyphs" textLength="40.8" x="213" y="262.2091">v1:Vertex2D</text><rect fill="none" height="3.6" style="stroke: #595959; stroke-width: 0.6000000238418579;" width="3.6" x="205.8" y="266.707"/><text fill="#000000" font-family="sans-serif" font-size="6.6" lengthAdjust="spacingAndGlyphs" textLength="40.8" x="213" y="269.8919">v2:Vertex2D</text><rect fill="none" height="3.6" style="stroke: #595959; stroke-width: 0.6000000238418579;" width="3.6" x="205.8" y="274.3899"/><text fill="#000000" font-family="sans-serif" font-size="6.6" lengthAdjust="spacingAndGlyphs" textLength="43.2" x="213" y="277.5747">width:double</text><rect fill="none" height="3.6" style="stroke: #595959; stroke-width: 0.6000000238418579;" width="3.6" x="205.8" y="282.0727"/><text fill="#000000" font-family="sans-serif" font-size="6.6" lengthAdjust="spacingAndGlyphs" textLength="46.2" x="213" y="285.2575">height:double</text><line style="stroke: #383838; stroke-width: 0.6000000238418579;" x1="201.6" x2="402" y1="289.2141" y2="289.2141"/><ellipse cx="207.6" cy="296.3555" fill="#A6A6A6" rx="1.8" ry="1.8" style="stroke: #545454; stroke-width: 0.6000000238418579;"/><text fill="#000000" font-family="sans-serif" font-size="6.6" lengthAdjust="spacingAndGlyphs" textLength="186" x="213" y="297.7403">Triangle(center:Vertex2D, width:double, height:double)</text><ellipse cx="207.6" cy="304.0383" fill="#A6A6A6" rx="1.8" ry="1.8" style="stroke: #545454; stroke-width: 0.6000000238418579;"/><text fill="#000000" font-family="sans-serif" font-size="6.6" lengthAdjust="spacingAndGlyphs" textLength="164.4" x="213" y="305.4232">Triangle(v0:Vertex2D, v1:Vertex2D, v2:Vertex2D)</text><line style="stroke: #383838; stroke-width: 0.6000000238418579; stroke-dasharray: 1.0,2.0;" x1="201.6" x2="402" y1="309.3797" y2="309.3797"/><rect fill="#808080" height="3.6" style="stroke: #595959; stroke-width: 0.6000000238418579;" width="3.6" x="205.8" y="314.7211"/><text fill="#000000" font-family="sans-serif" font-size="6.6" lengthAdjust="spacingAndGlyphs" textLength="102.6" x="213" y="317.906">calculateVerticesFromCenter()</text><rect fill="#808080" height="3.6" style="stroke: #595959; stroke-width: 0.6000000238418579;" width="3.6" x="205.8" y="322.4039"/><text fill="#000000" font-family="sans-serif" font-size="6.6" lengthAdjust="spacingAndGlyphs" textLength="67.8" x="213" y="325.5888">updateCenterPoint()</text><ellipse cx="207.6" cy="331.8867" fill="#A6A6A6" rx="1.8" ry="1.8" style="stroke: #545454; stroke-width: 0.6000000238418579;"/><text fill="#000000" font-family="sans-serif" font-size="6.6" lengthAdjust="spacingAndGlyphs" textLength="127.2" x="213" y="333.2716">scale(xFactor:double, yFactor:double)</text><ellipse cx="207.6" cy="339.5695" fill="#A6A6A6" rx="1.8" ry="1.8" style="stroke: #545454; stroke-width: 0.6000000238418579;"/><text fill="#000000" font-family="sans-serif" font-size="6.6" lengthAdjust="spacingAndGlyphs" textLength="54.6" x="213" y="340.9544">toString():String</text><rect fill="#FFFFFF" filter="url(#f1)" height="141.1594" style="stroke: #383838; stroke-width: 0.9000000357627869;" width="231" x="423.9" y="215.4"/><ellipse cx="517.95" cy="225" fill="#C2C2C2" rx="6.6" ry="6.6" style="stroke: #383838; stroke-width: 0.6000000238418579;"/><path d="M519.7313,228.3844 Q519.3844,228.5625 519,228.6516 Q518.6156,228.7406 518.1938,228.7406 Q516.6938,228.7406 515.9016,227.7516 Q515.1094,226.7625 515.1094,224.8875 Q515.1094,223.0125 515.9016,222.0188 Q516.6938,221.025 518.1938,221.025 Q518.6156,221.025 519.0047,221.1188 Q519.3938,221.2125 519.7313,221.3906 L519.7313,223.0219 Q519.3563,222.675 519,222.5109 Q518.6438,222.3469 518.2688,222.3469 Q517.4625,222.3469 517.05,222.9891 Q516.6375,223.6313 516.6375,224.8875 Q516.6375,226.1438 517.05,226.7859 Q517.4625,227.4281 518.2688,227.4281 Q518.6438,227.4281 519,227.2641 Q519.3563,227.1 519.7313,226.7531 L519.7313,228.3844 Z "/><text fill="#000000" font-family="sans-serif" font-size="7.2" lengthAdjust="spacingAndGlyphs" textLength="37.8" x="530.25" y="227.4926">Rectangle</text><line style="stroke: #383838; stroke-width: 0.9000000357627869;" x1="424.5" x2="654.3" y1="234.6" y2="234.6"/><rect fill="none" height="3.6" style="stroke: #595959; stroke-width: 0.6000000238418579;" width="3.6" x="428.7" y="239.9414"/><text fill="#000000" font-family="sans-serif" font-size="6.6" lengthAdjust="spacingAndGlyphs" textLength="40.8" x="435.9" y="243.1263">v0:Vertex2D</text><rect fill="none" height="3.6" style="stroke: #595959; stroke-width: 0.6000000238418579;" width="3.6" x="428.7" y="247.6242"/><text fill="#000000" font-family="sans-serif" font-size="6.6" lengthAdjust="spacingAndGlyphs" textLength="40.8" x="435.9" y="250.8091">v1:Vertex2D</text><rect fill="none" height="3.6" style="stroke: #595959; stroke-width: 0.6000000238418579;" width="3.6" x="428.7" y="255.307"/><text fill="#000000" font-family="sans-serif" font-size="6.6" lengthAdjust="spacingAndGlyphs" textLength="40.8" x="435.9" y="258.4919">v3:Vertex2D</text><rect fill="none" height="3.6" style="stroke: #595959; stroke-width: 0.6000000238418579;" width="3.6" x="428.7" y="262.9899"/><text fill="#000000" font-family="sans-serif" font-size="6.6" lengthAdjust="spacingAndGlyphs" textLength="40.8" x="435.9" y="266.1747">v3:Vertex2D</text><rect fill="none" height="3.6" style="stroke: #595959; stroke-width: 0.6000000238418579;" width="3.6" x="428.7" y="270.6727"/><text fill="#000000" font-family="sans-serif" font-size="6.6" lengthAdjust="spacingAndGlyphs" textLength="43.2" x="435.9" y="273.8575">width:double</text><rect fill="none" height="3.6" style="stroke: #595959; stroke-width: 0.6000000238418579;" width="3.6" x="428.7" y="278.3555"/><text fill="#000000" font-family="sans-serif" font-size="6.6" lengthAdjust="spacingAndGlyphs" textLength="46.2" x="435.9" y="281.5403">height:double</text><line style="stroke: #383838; stroke-width: 0.6000000238418579;" x1="424.5" x2="654.3" y1="285.4969" y2="285.4969"/><ellipse cx="430.5" cy="292.6383" fill="#A6A6A6" rx="1.8" ry="1.8" style="stroke: #545454; stroke-width: 0.6000000238418579;"/><text fill="#000000" font-family="sans-serif" font-size="6.6" lengthAdjust="spacingAndGlyphs" textLength="191.4" x="435.9" y="294.0232">Rectangle(center:Vertex2D, width:double, height:double)</text><ellipse cx="430.5" cy="300.3211" fill="#A6A6A6" rx="1.8" ry="1.8" style="stroke: #545454; stroke-width: 0.6000000238418579;"/><text fill="#000000" font-family="sans-serif" font-size="6.6" lengthAdjust="spacingAndGlyphs" textLength="215.4" x="435.9" y="301.706">Rectangle(v0:Vertex2D, v1:Vertex2D, v2:Vertex2D, v3:Vertex2D)</text><line style="stroke: #383838; stroke-width: 0.6000000238418579; stroke-dasharray: 1.0,2.0;" x1="424.5" x2="654.3" y1="305.6625" y2="305.6625"/><rect fill="#808080" height="3.6" style="stroke: #595959; stroke-width: 0.6000000238418579;" width="3.6" x="428.7" y="311.0039"/><text fill="#000000" font-family="sans-serif" font-size="6.6" lengthAdjust="spacingAndGlyphs" textLength="102.6" x="435.9" y="314.1888">calculateVerticesFromCenter()</text><rect fill="#808080" height="3.6" style="stroke: #595959; stroke-width: 0.6000000238418579;" width="3.6" x="428.7" y="318.6867"/><text fill="#000000" font-family="sans-serif" font-size="6.6" lengthAdjust="spacingAndGlyphs" textLength="67.8" x="435.9" y="321.8716">updateCenterPoint()</text><rect fill="#808080" height="3.6" style="stroke: #595959; stroke-width: 0.6000000238418579;" width="3.6" x="428.7" y="326.3695"/><text fill="#000000" font-family="sans-serif" font-size="6.6" lengthAdjust="spacingAndGlyphs" textLength="52.8" x="435.9" y="329.5544">calculateWidth()</text><rect fill="#808080" height="3.6" style="stroke: #595959; stroke-width: 0.6000000238418579;" width="3.6" x="428.7" y="334.0524"/><text fill="#000000" font-family="sans-serif" font-size="6.6" lengthAdjust="spacingAndGlyphs" textLength="56.4" x="435.9" y="337.2372">calculateHeight()</text><ellipse cx="430.5" cy="343.5352" fill="#A6A6A6" rx="1.8" ry="1.8" style="stroke: #545454; stroke-width: 0.6000000238418579;"/><text fill="#000000" font-family="sans-serif" font-size="6.6" lengthAdjust="spacingAndGlyphs" textLength="127.2" x="435.9" y="344.92">scale(xFactor:double, yFactor:double)</text><ellipse cx="430.5" cy="351.218" fill="#A6A6A6" rx="1.8" ry="1.8" style="stroke: #545454; stroke-width: 0.6000000238418579;"/><text fill="#000000" font-family="sans-serif" font-size="6.6" lengthAdjust="spacingAndGlyphs" textLength="54.6" x="435.9" y="352.6028">toString():String</text><rect fill="#FFFFFF" filter="url(#f1)" height="102.7453" style="stroke: #383838; stroke-width: 0.9000000357627869;" width="144" x="676.2" y="234.6"/><ellipse cx="732.15" cy="244.2" fill="#C2C2C2" rx="6.6" ry="6.6" style="stroke: #383838; stroke-width: 0.6000000238418579;"/><path d="M733.9313,247.5844 Q733.5844,247.7625 733.2,247.8516 Q732.8157,247.9406 732.3938,247.9406 Q730.8938,247.9406 730.1016,246.9516 Q729.3094,245.9625 729.3094,244.0875 Q729.3094,242.2125 730.1016,241.2188 Q730.8938,240.225 732.3938,240.225 Q732.8157,240.225 733.2047,240.3188 Q733.5938,240.4125 733.9313,240.5906 L733.9313,242.2219 Q733.5563,241.875 733.2,241.7109 Q732.8438,241.5469 732.4688,241.5469 Q731.6625,241.5469 731.25,242.1891 Q730.8375,242.8313 730.8375,244.0875 Q730.8375,245.3438 731.25,245.9859 Q731.6625,246.6281 732.4688,246.6281 Q732.8438,246.6281 733.2,246.4641 Q733.5563,246.3 733.9313,245.9531 L733.9313,247.5844 Z "/><text fill="#000000" font-family="sans-serif" font-size="7.2" lengthAdjust="spacingAndGlyphs" textLength="27" x="744.45" y="246.6926">Square</text><line style="stroke: #383838; stroke-width: 0.9000000357627869;" x1="676.8" x2="819.6" y1="253.8" y2="253.8"/><rect fill="none" height="3.6" style="stroke: #595959; stroke-width: 0.6000000238418579;" width="3.6" x="681" y="259.1414"/><text fill="#000000" font-family="sans-serif" font-size="6.6" lengthAdjust="spacingAndGlyphs" textLength="40.8" x="688.2" y="262.3263">v0:Vertex2D</text><rect fill="none" height="3.6" style="stroke: #595959; stroke-width: 0.6000000238418579;" width="3.6" x="681" y="266.8242"/><text fill="#000000" font-family="sans-serif" font-size="6.6" lengthAdjust="spacingAndGlyphs" textLength="40.8" x="688.2" y="270.0091">v1:Vertex2D</text><rect fill="none" height="3.6" style="stroke: #595959; stroke-width: 0.6000000238418579;" width="3.6" x="681" y="274.507"/><text fill="#000000" font-family="sans-serif" font-size="6.6" lengthAdjust="spacingAndGlyphs" textLength="40.8" x="688.2" y="277.6919">v3:Vertex2D</text><rect fill="none" height="3.6" style="stroke: #595959; stroke-width: 0.6000000238418579;" width="3.6" x="681" y="282.1899"/><text fill="#000000" font-family="sans-serif" font-size="6.6" lengthAdjust="spacingAndGlyphs" textLength="40.8" x="688.2" y="285.3747">v3:Vertex2D</text><rect fill="none" height="3.6" style="stroke: #595959; stroke-width: 0.6000000238418579;" width="3.6" x="681" y="289.8727"/><text fill="#000000" font-family="sans-serif" font-size="6.6" lengthAdjust="spacingAndGlyphs" textLength="62.4" x="688.2" y="293.0575">sideLength:double</text><line style="stroke: #383838; stroke-width: 0.6000000238418579;" x1="676.8" x2="819.6" y1="297.0141" y2="297.0141"/><ellipse cx="682.8" cy="304.1555" fill="#A6A6A6" rx="1.8" ry="1.8" style="stroke: #545454; stroke-width: 0.6000000238418579;"/><text fill="#000000" font-family="sans-serif" font-size="6.6" lengthAdjust="spacingAndGlyphs" textLength="128.4" x="688.2" y="305.5403">Square(center:Vertex2D, side:double)</text><line style="stroke: #383838; stroke-width: 0.6000000238418579; stroke-dasharray: 1.0,2.0;" x1="676.8" x2="819.6" y1="309.4969" y2="309.4969"/><rect fill="#808080" height="3.6" style="stroke: #595959; stroke-width: 0.6000000238418579;" width="3.6" x="681" y="314.8383"/><text fill="#000000" font-family="sans-serif" font-size="6.6" lengthAdjust="spacingAndGlyphs" textLength="67.8" x="688.2" y="318.0232">updateCenterPoint()</text><ellipse cx="682.8" cy="324.3211" fill="#A6A6A6" rx="1.8" ry="1.8" style="stroke: #545454; stroke-width: 0.6000000238418579;"/><text fill="#000000" font-family="sans-serif" font-size="6.6" lengthAdjust="spacingAndGlyphs" textLength="127.2" x="688.2" y="325.706">scale(xFactor:double, yFactor:double)</text><ellipse cx="682.8" cy="332.0039" fill="#A6A6A6" rx="1.8" ry="1.8" style="stroke: #545454; stroke-width: 0.6000000238418579;"/><text fill="#000000" font-family="sans-serif" font-size="6.6" lengthAdjust="spacingAndGlyphs" textLength="54.6" x="688.2" y="333.3888">toString():String</text><path d="M623.724,143.6346 C682.554,160.6266 762.306,185.9388 829.8,215.4 C842.82,221.0832 856.26,227.7012 869.286,234.5556 " fill="none" style="stroke: #383838; stroke-width: 0.6000000238418579; stroke-dasharray: 7.0,7.0;"/><polygon fill="#383838" points="620.766,142.7814,625.2894,146.5839,623.6485,143.6128,626.6196,141.9719,620.766,142.7814" style="stroke: #383838; stroke-width: 0.6000000238418579;"/><path d="M1160.694,154.05 C1124.58,177.1194 1075.734,208.3146 1034.73,234.504 " fill="none" style="stroke: #383838; stroke-width: 0.6000000238418579; stroke-dasharray: 7.0,7.0;"/><polygon fill="#383838" points="1163.274,152.4036,1157.4303,153.2818,1160.7441,154.0159,1160.01,157.3297,1163.274,152.4036" style="stroke: #383838; stroke-width: 0.6000000238418579;"/><path d="M1192.5,163.266 C1177.266,195.3672 1156.968,238.1568 1144.89,263.6058 " fill="none" style="stroke: #383838; stroke-width: 0.6000000238418579;"/><polygon fill="none" points="1188.714,161.445,1197.654,152.4036,1196.304,165.0456,1188.714,161.445" style="stroke: #383838; stroke-width: 0.6000000238418579;"/><path d="M1229.01,163.728 C1239.246,190.428 1252.254,224.3838 1261.9261,249.6192 " fill="none" style="stroke: #383838; stroke-width: 0.6000000238418579;"/><polygon fill="none" points="1225.044,165.1116,1224.672,152.4036,1232.886,162.1062,1225.044,165.1116" style="stroke: #383838; stroke-width: 0.6000000238418579;"/><path d="M1275.8461,158.7744 C1302.8341,175.4802 1334.4061,195.7524 1362.0001,215.4 C1373.6521,223.6944 1385.8321,232.9884 1397.2801,242.0232 " fill="none" style="stroke: #383838; stroke-width: 0.6000000238418579;"/><polygon fill="none" points="1273.5661,162.3048,1265.5501,152.4378,1277.9701,155.1516,1273.5661,162.3048" style="stroke: #383838; stroke-width: 0.6000000238418579;"/><path d="M446.1336,134.6868 C373.4622,148.0854 271.671,172.812 190.8,215.4 C175.551,223.4304 160.6458,234.7164 147.807,245.8812 " fill="none" style="stroke: #383838; stroke-width: 0.6000000238418579;"/><polygon fill="none" points="445.437,130.545,457.9908,132.5532,446.9244,138.8118,445.437,130.545" style="stroke: #383838; stroke-width: 0.6000000238418579;"/><path d="M447.8262,184.2618 C427.6122,198.2484 406.287,213.0036 386.3658,226.7874 " fill="none" style="stroke: #383838; stroke-width: 0.6000000238418579;"/><polygon fill="none" points="445.7058,180.621,457.9638,177.2472,450.4854,187.5288,445.7058,180.621" style="stroke: #383838; stroke-width: 0.6000000238418579;"/><path d="M539.4,191.6406 C539.4,199.4304 539.4,207.3606 539.4,215.1432 " fill="none" style="stroke: #383838; stroke-width: 0.6000000238418579;"/><polygon fill="none" points="535.2,191.556,539.4,179.556,543.6,191.556,535.2,191.556" style="stroke: #383838; stroke-width: 0.6000000238418579;"/><path d="M628.614,186.8088 C641.058,196.2906 653.61,206.0148 665.4,215.4 C673.056,221.4924 681.012,227.994 688.842,234.4866 " fill="none" style="stroke: #383838; stroke-width: 0.6000000238418579;"/><polygon fill="none" points="625.926,190.0428,618.906,179.442,631.008,183.3516,625.926,190.0428" style="stroke: #383838; stroke-width: 0.6000000238418579;"/><text fill="#888888" font-family="sans-serif" font-size="6" lengthAdjust="spacingAndGlyphs" textLength="63" x="754.2" y="401.5694">Jonas Sjöberg 860224</text><text fill="#888888" font-family="sans-serif" font-size="6" lengthAdjust="spacingAndGlyphs" textLength="51.6" x="759.9" y="408.5537">Högskolan i Gävle</text><text fill="#888888" font-family="monospaced" font-size="6" lengthAdjust="spacingAndGlyphs" textLength="82.8" x="744.3" y="415.5381">tel12jsg@student.hig.se</text><text fill="#888888" font-family="monospaced" font-size="6" lengthAdjust="spacingAndGlyphs" textLength="104.4" x="733.5" y="422.5225">https://github.com/jonasjberg</text></g></svg>